<svg width="45" height="46" viewBox="0 0 45 46" fill="none" xmlns="http://www.w3.org/2000/svg">
<g id="Frame" clip-path="url(#clip0_548_1076)">
<g id="Group">
<path id="Vector" d="M22.5 45.189C34.9264 45.189 45 35.1154 45 22.689C45 10.2626 34.9264 0.188965 22.5 0.188965C10.0736 0.188965 0 10.2626 0 22.689C0 35.1154 10.0736 45.189 22.5 45.189Z" fill="#FD8469"/>
<path id="Vector_2" d="M22.6063 32.3267C22.5709 32.3267 22.5354 32.3621 22.5 32.3621C22.4646 32.3621 22.4291 32.3267 22.3937 32.3267H22.6063Z" fill="#84DBFF"/>
<path id="Vector_3" d="M39.9685 36.862C35.8583 41.929 29.5512 45.1888 22.5 45.1888C15.4488 45.1888 9.14173 41.929 5.03149 36.862C7.97244 32.929 12.4724 30.9801 16.1575 30.0234C15.874 32.362 17.0787 35.4801 17.1142 35.4093C18.3543 32.5746 22.5 32.3266 22.5 32.3266C22.5 32.3266 26.6457 32.5746 27.8504 35.4093C27.8858 35.4801 29.126 32.362 28.8071 30.0234C32.5276 30.9801 37.063 32.929 39.9685 36.862Z" fill="#84DBFF"/>
<path id="Vector_4" d="M27.5669 27.8267V27.8621C27.5669 28.2165 27.3898 30.4842 22.6063 32.2913H22.3937C17.6102 30.4842 17.4331 28.2165 17.4331 27.8621V27.8267C17.4331 27.3661 17.5394 26.9055 17.6457 26.4448C19.0276 28.181 20.6929 29.3503 22.5 29.3503C24.3071 29.3503 25.9724 28.181 27.3543 26.4448C27.4606 26.9055 27.5669 27.3661 27.5669 27.8267Z" fill="white"/>
<path id="Vector_5" d="M27.5669 27.8267C27.5669 27.8267 27.815 30.3778 22.5 32.3621C22.5 32.3621 26.6457 32.6101 27.8504 35.4448C27.9213 35.5156 30.2953 29.3503 27.5669 27.8267ZM17.4331 27.8267C14.7047 29.3503 17.0787 35.5156 17.1496 35.4093C18.3898 32.5747 22.5 32.3267 22.5 32.3267C17.185 30.3778 17.4331 27.8267 17.4331 27.8267Z" fill="#54C0EB"/>
<path id="Vector_6" d="M29.9409 18.8622C29.622 21.059 28.6654 23.1141 27.0709 24.6732C26.752 24.9921 26.4685 25.2401 26.1142 25.4881L25.5472 23.6811H19.4528L18.8858 25.4881C17.752 24.6378 15.378 22.2637 15.3425 20.0315C14.3504 7.31098 24.0945 10.0039 24.0945 10.0039C30.6496 9.54326 30.437 15.3189 29.9409 18.8622ZM31.252 21.1653C30.7559 21.9803 30.0827 22.5472 29.4449 22.7598C29.6929 22.1929 29.9055 21.5905 30.0827 20.9881V20.9527L30.5079 19.3582H30.4724C30.6142 18.8267 30.7559 18.2952 30.8622 17.7637C31.0039 17.7637 31.1457 17.8346 31.2874 17.9055C32.0669 18.4015 32.0315 19.8543 31.252 21.1653ZM15.5551 22.7598C14.9173 22.5472 14.2441 21.9803 13.748 21.1653C12.9331 19.8543 12.9331 18.4015 13.7126 17.9409C13.7835 17.9055 13.8189 17.87 13.8898 17.87C14.315 19.5354 14.811 20.7755 14.9173 21.0236C15.0945 21.5905 15.3071 22.1929 15.5551 22.7598Z" fill="white"/>
<path id="Vector_7" d="M26.3622 6.46072C26.6457 3.20088 21.4724 3.41347 21.4724 3.41347C13.6417 4.54733 12.7913 11.8465 12.7913 11.8465L13.8543 10.571C12.189 14.2206 14.7047 20.4922 14.9173 20.9883C16.2283 25.3465 19.1339 29.3505 22.5 29.3505C25.8661 29.3505 28.7717 25.3465 30.0827 20.9883V20.9528C30.2244 20.4213 30.3661 19.8899 30.4724 19.3584H30.437C31.1457 16.5237 31.9252 13.6536 31.9252 13.6536C33.9449 3.48434 26.3622 6.46072 26.3622 6.46072ZM29.9409 18.8623C29.622 21.0591 28.6654 23.1143 27.0709 24.6733C26.752 24.9922 26.4331 25.2402 26.1142 25.4883L25.5472 23.7166H19.4528L18.8858 25.5237C17.752 24.6733 16.7953 23.504 16.0157 22.1576C15.6614 21.4489 15.4488 20.7048 15.3425 20.067C14.3504 7.34655 24.0945 10.0395 24.0945 10.0395C30.6496 9.5434 30.437 15.319 29.9409 18.8623Z" fill="#324A5E"/>
<path id="Vector_8" d="M26.3622 6.46072C26.6457 3.20088 21.4724 3.41347 21.4724 3.41347C13.6417 4.54733 12.7913 11.8465 12.7913 11.8465L13.8543 10.571C12.189 14.2206 14.7047 20.4922 14.9173 20.9883C16.2283 25.3465 19.1339 29.3505 22.5 29.3505C25.8661 29.3505 28.7717 25.3465 30.0827 20.9883V20.9528C30.2244 20.4213 30.3661 19.8899 30.4724 19.3584H30.437C31.1457 16.5237 31.9252 13.6536 31.9252 13.6536C33.9449 3.48434 26.3622 6.46072 26.3622 6.46072ZM29.9409 18.8623C29.622 21.0591 28.6654 23.1143 27.0709 24.6733C26.752 24.9922 26.4331 25.2402 26.1142 25.4883L25.5472 23.7166H19.4528L18.8858 25.5237C17.752 24.6733 16.7953 23.504 16.0157 22.1576C15.6614 21.4489 15.4488 20.7048 15.3425 20.067C14.3504 7.34655 24.0945 10.0395 24.0945 10.0395C30.6496 9.5434 30.437 15.319 29.9409 18.8623Z" fill="#324A5E"/>
<path id="Vector_9" d="M26.3622 6.46072C26.6457 3.20088 21.4724 3.41347 21.4724 3.41347C13.6417 4.54733 12.7913 11.8465 12.7913 11.8465L13.8543 10.571C12.189 14.2206 14.7047 20.4922 14.9173 20.9883C16.2283 25.3465 19.1339 29.3505 22.5 29.3505C25.8661 29.3505 28.7717 25.3465 30.0827 20.9883V20.9528C30.2244 20.4213 30.3661 19.8899 30.4724 19.3584H30.437C31.1457 16.5237 31.9252 13.6536 31.9252 13.6536C33.9449 3.48434 26.3622 6.46072 26.3622 6.46072ZM29.9409 18.8623C29.622 21.0591 28.6654 23.1143 27.0709 24.6733C26.752 24.9922 26.4331 25.2402 26.1142 25.4883L25.5472 23.7166H19.4528L18.8858 25.5237C17.752 24.6733 15.378 22.2993 15.3425 20.067C14.3504 7.34655 24.0945 10.0395 24.0945 10.0395C30.6496 9.5434 30.437 15.319 29.9409 18.8623Z" fill="#324A5E"/>
<path id="Vector_10" d="M20.0197 24.9214C20.622 25.5946 21.5079 26.0552 22.5 26.0552C23.4921 26.0552 24.378 25.63 24.9803 24.9214H20.0197Z" fill="white"/>
</g>
</g>
<defs>
<clipPath id="clip0_548_1076">
<rect width="45" height="45" fill="white" transform="translate(0 0.188965)"/>
</clipPath>
</defs>
</svg>
