<svg width="27" height="26" viewBox="0 0 27 26" fill="none" xmlns="http://www.w3.org/2000/svg">
<rect x="0.081665" width="25.9592" height="25.9592" rx="2.16327" fill="url(#paint0_linear_24_60)"/>
<path fill-rule="evenodd" clip-rule="evenodd" d="M10.0884 5.81182C10.8573 5.77642 11.1025 5.76855 13.0612 5.76855C15.02 5.76855 15.2651 5.77708 16.0334 5.81182C16.8017 5.84656 17.3261 5.96915 17.785 6.1468C18.2655 6.32838 18.7014 6.61223 19.062 6.97933C19.4291 7.33922 19.7123 7.77449 19.8932 8.25565C20.0715 8.71453 20.1934 9.23896 20.2288 10.0059C20.2642 10.7762 20.2721 11.0214 20.2721 12.9794C20.2721 14.9382 20.2636 15.1833 20.2288 15.9523C20.1941 16.7193 20.0715 17.2437 19.8932 17.7026C19.7123 18.1838 19.4286 18.6198 19.062 18.9802C18.7014 19.3473 18.2655 19.6305 17.785 19.8114C17.3261 19.9897 16.8017 20.1117 16.0347 20.1471C15.2651 20.1825 15.02 20.1903 13.0612 20.1903C11.1025 20.1903 10.8573 20.1818 10.0884 20.1471C9.3214 20.1123 8.79697 19.9897 8.3381 19.8114C7.85688 19.6305 7.42089 19.3468 7.06046 18.9802C6.69361 18.6201 6.40972 18.1843 6.22859 17.7032C6.05094 17.2443 5.92901 16.7199 5.89361 15.9529C5.85821 15.1827 5.85034 14.9375 5.85034 12.9794C5.85034 11.0207 5.85886 10.7755 5.89361 10.0072C5.92835 9.23896 6.05094 8.71453 6.22859 8.25565C6.40999 7.77454 6.69409 7.33877 7.06111 6.97867C7.42103 6.6119 7.85659 6.32802 8.33744 6.1468C8.79632 5.96915 9.32074 5.84722 10.0877 5.81182H10.0884ZM15.9751 7.10978C15.2147 7.07504 14.9865 7.06782 13.0612 7.06782C11.1359 7.06782 10.9078 7.07504 10.1474 7.10978C9.44398 7.1419 9.06246 7.25924 8.80812 7.35823C8.47183 7.48933 8.23124 7.6447 7.97886 7.89708C7.73962 8.12983 7.55551 8.41317 7.44001 8.72633C7.34103 8.98068 7.22369 9.3622 7.19157 10.0656C7.15682 10.826 7.14961 11.0541 7.14961 12.9794C7.14961 14.9047 7.15682 15.1329 7.19157 15.8933C7.22369 16.5967 7.34103 16.9782 7.44001 17.2325C7.55539 17.5452 7.73959 17.8291 7.97886 18.0618C8.21158 18.3011 8.49543 18.4853 8.80812 18.6007C9.06246 18.6996 9.44398 18.817 10.1474 18.8491C10.9078 18.8838 11.1353 18.8911 13.0612 18.8911C14.9872 18.8911 15.2147 18.8838 15.9751 18.8491C16.6785 18.817 17.06 18.6996 17.3143 18.6007C17.6506 18.4695 17.8912 18.3142 18.1436 18.0618C18.3829 17.8291 18.5671 17.5452 18.6824 17.2325C18.7814 16.9782 18.8988 16.5967 18.9309 15.8933C18.9656 15.1329 18.9728 14.9047 18.9728 12.9794C18.9728 11.0541 18.9656 10.826 18.9309 10.0656C18.8988 9.3622 18.7814 8.98068 18.6824 8.72633C18.5513 8.39004 18.396 8.14946 18.1436 7.89708C17.9108 7.65785 17.6275 7.47374 17.3143 7.35823C17.06 7.25924 16.6785 7.1419 15.9751 7.10978ZM12.1402 15.2024C12.6546 15.4165 13.2273 15.4454 13.7606 15.2841C14.2939 15.1229 14.7547 14.7814 15.0643 14.3182C15.3738 13.855 15.513 13.2986 15.4579 12.7442C15.4028 12.1897 15.157 11.6716 14.7623 11.2783C14.5108 11.0269 14.2066 10.8344 13.8717 10.7147C13.5368 10.5949 13.1795 10.5509 12.8256 10.5858C12.4716 10.6207 12.1298 10.7337 11.8248 10.9166C11.5197 11.0994 11.259 11.3476 11.0614 11.6434C10.8638 11.9391 10.7342 12.2749 10.682 12.6267C10.6297 12.9785 10.6562 13.3376 10.7593 13.6779C10.8625 14.0183 11.0399 14.3316 11.2786 14.5951C11.5174 14.8587 11.8117 15.0661 12.1402 15.2024ZM10.4404 10.3586C10.7846 10.0144 11.1932 9.74143 11.6428 9.55516C12.0925 9.3689 12.5745 9.27303 13.0612 9.27303C13.548 9.27303 14.0299 9.3689 14.4796 9.55516C14.9293 9.74143 15.3379 10.0144 15.6821 10.3586C16.0262 10.7028 16.2992 11.1114 16.4855 11.5611C16.6718 12.0107 16.7676 12.4927 16.7676 12.9794C16.7676 13.4662 16.6718 13.9481 16.4855 14.3978C16.2992 14.8475 16.0262 15.2561 15.6821 15.6003C14.987 16.2954 14.0442 16.6859 13.0612 16.6859C12.0782 16.6859 11.1355 16.2954 10.4404 15.6003C9.74531 14.9052 9.35481 13.9624 9.35481 12.9794C9.35481 11.9964 9.74531 11.0537 10.4404 10.3586ZM17.5897 9.82501C17.6749 9.74455 17.7432 9.6478 17.7905 9.54049C17.8377 9.43317 17.8629 9.31747 17.8646 9.20023C17.8663 9.083 17.8445 8.96661 17.8004 8.85797C17.7563 8.74932 17.6909 8.65062 17.608 8.56771C17.5251 8.48481 17.4264 8.41938 17.3177 8.3753C17.2091 8.33122 17.0927 8.30939 16.9755 8.3111C16.8582 8.31281 16.7425 8.33802 16.6352 8.38525C16.5279 8.43248 16.4312 8.50076 16.3507 8.58604C16.1942 8.75191 16.1086 8.97223 16.1119 9.20023C16.1152 9.42823 16.2073 9.64596 16.3685 9.8072C16.5297 9.96844 16.7475 10.0605 16.9755 10.0638C17.2035 10.0671 17.4238 9.98147 17.5897 9.82501Z" fill="white"/>
<defs>
<linearGradient id="paint0_linear_24_60" x1="25.3198" y1="25.2381" x2="0.802753" y2="9.40272e-07" gradientUnits="userSpaceOnUse">
<stop stop-color="#FFDD55"/>
<stop offset="0.489583" stop-color="#FF543E"/>
<stop offset="1" stop-color="#C837AB"/>
</linearGradient>
</defs>
</svg>
