<svg width="17" height="17" viewBox="0 0 17 17" fill="none" xmlns="http://www.w3.org/2000/svg">
<g id="Group 18">
<path id="Vector" d="M8.49988 0C3.83196 0 -0.00012207 3.54636 -0.00012207 7.93909C-0.00012207 10.2794 1.11196 12.3587 2.83321 13.8071V17L5.97679 15.4681C6.77579 15.7028 7.61163 15.8782 8.49988 15.8782C13.1678 15.8782 16.9999 12.3318 16.9999 7.93909C16.9999 3.54636 13.1678 0 8.49988 0ZM8.49988 1.38071C12.4375 1.38071 15.5832 4.32577 15.5832 7.93909C15.5832 11.5524 12.4375 14.4975 8.49988 14.4975C7.65342 14.4975 6.84521 14.3408 6.08729 14.0874L5.79971 14.0011L4.24988 14.7563V13.203L3.98425 12.987C2.41246 11.7795 1.41654 9.97011 1.41654 7.93909C1.41654 4.32577 4.56225 1.38071 8.49988 1.38071ZM7.703 5.76032L3.43104 10.1613L7.26029 8.09027L9.29675 10.2262L13.5248 5.75963L9.78338 7.80999L7.703 5.76032Z" fill="#E7EAEF"/>
</g>
</svg>
