<svg width="27" height="26" viewBox="0 0 27 26" fill="none" xmlns="http://www.w3.org/2000/svg">
<rect x="0.387756" width="25.9592" height="25.9592" rx="2.16327" fill="#F04B53"/>
<path d="M14.494 5.76855C11.0258 5.76855 7.59863 8.08054 7.59863 11.8225C7.59863 14.202 8.93715 15.5541 9.74838 15.5541C10.0831 15.5541 10.2757 14.6212 10.2757 14.3578C10.2757 14.0436 9.47472 13.3741 9.47472 12.0658C9.47472 9.34822 11.5433 7.42129 14.2204 7.42129C16.5221 7.42129 18.2257 8.72952 18.2257 11.1329C18.2257 12.9279 17.5058 16.2945 15.1733 16.2945C14.3318 16.2945 13.6114 15.686 13.6114 14.8142C13.6114 13.5363 14.5038 12.2995 14.5038 10.9809C14.5038 8.74358 11.3297 9.1492 11.3297 11.8533C11.3297 12.4211 11.4006 13.0496 11.6542 13.5671C11.1875 15.5752 10.2346 18.5664 10.2346 20.6351C10.2346 21.2738 10.326 21.9027 10.3865 22.5414C10.5012 22.6701 10.4439 22.6566 10.6196 22.5923C12.3232 20.2597 12.2626 19.8038 13.0333 16.7515C13.4492 17.5427 14.5238 17.9683 15.3756 17.9683C18.965 17.9683 20.5777 14.4697 20.5777 11.3162C20.5777 7.95994 17.6773 5.76964 14.4935 5.76964L14.494 5.76855Z" fill="white"/>
</svg>
