<svg width="17" height="17" viewBox="0 0 17 17" fill="none" xmlns="http://www.w3.org/2000/svg">
<g id="Group 17">
<path id="Vector" d="M4.95821 0C2.22759 0 -0.00012207 2.22771 -0.00012207 4.95833C-0.00012207 5.68862 0.223711 6.3665 0.509169 6.99479C0.410984 7.49064 0.359053 7.99454 0.354045 8.5C0.354045 12.9908 4.00904 16.6458 8.49988 16.6458C9.01696 16.6458 9.51563 16.5821 10.0051 16.4907C10.6334 16.7762 11.3113 17 12.0415 17C14.7722 17 16.9999 14.7723 16.9999 12.0417C16.9999 11.3114 16.776 10.6335 16.4906 10.0052C16.5827 9.51575 16.6457 9.01708 16.6457 8.5C16.6457 4.00917 12.9907 0.354167 8.49988 0.354167C7.98279 0.354167 7.48413 0.417917 6.99467 0.509292C6.36638 0.223833 5.6885 0 4.95821 0ZM4.95821 1.41667C5.5695 1.41667 6.13971 1.56542 6.6405 1.83742C6.78987 1.91687 6.96274 1.94024 7.12784 1.90329C7.57951 1.81272 8.03922 1.76833 8.49988 1.77083C12.2243 1.77083 15.229 4.77558 15.229 8.5C15.229 8.97317 15.1873 9.42721 15.0959 9.87275C15.0593 10.0377 15.0829 10.2103 15.1625 10.3594C15.4338 10.8602 15.5832 11.4304 15.5832 12.0417C15.5832 14.0059 14.0058 15.5833 12.0415 15.5833C11.4303 15.5833 10.86 15.4346 10.3593 15.1626C10.2099 15.0831 10.037 15.0598 9.87192 15.0967C9.42025 15.1873 8.96053 15.2317 8.49988 15.2292C7.61582 15.2305 6.7402 15.0573 5.92319 14.7196C5.10618 14.3819 4.36385 13.8863 3.73873 13.2612C3.11361 12.636 2.61799 11.8937 2.28028 11.0767C1.94257 10.2597 1.76941 9.38405 1.77071 8.5C1.77071 8.02683 1.8125 7.57279 1.90388 7.12725C1.94043 6.96229 1.91682 6.7897 1.83729 6.64062C1.55857 6.12387 1.41391 5.54546 1.41654 4.95833C1.41654 2.99412 2.994 1.41667 4.95821 1.41667ZM8.38938 3.65217C6.63767 3.65217 4.75917 4.39379 4.75917 6.375C4.75917 7.32983 5.09634 8.33921 6.97271 8.81025L9.31871 9.38542C10.0242 9.55967 10.2041 9.95846 10.2041 10.3155C10.2041 10.9105 9.61479 11.4885 8.5445 11.4885C6.45209 11.4885 6.72054 9.89471 5.59996 9.89471C5.09704 9.89471 4.7365 10.2404 4.7365 10.7355C4.7365 11.7017 5.92367 12.9717 8.5445 12.9717C11.0371 12.9717 12.2633 11.7675 12.2633 10.1596C12.2633 9.11979 11.7844 8.03463 9.89459 7.61458L8.16767 7.21579C7.51175 7.06704 6.751 6.88146 6.751 6.2645C6.751 5.64471 7.27659 5.202 8.23425 5.202C10.163 5.202 9.99942 6.53012 10.9571 6.53012C11.46 6.53012 11.8864 6.24254 11.8864 5.73325C11.8864 4.54325 10.0023 3.65217 8.38938 3.65217Z" fill="#E7EAEF"/>
</g>
</svg>
