<svg width="19" height="19" viewBox="0 0 19 19" fill="none" xmlns="http://www.w3.org/2000/svg">
<g id="Group 19">
<path id="Vector" d="M9.49988 18C14.1944 18 17.9999 14.1946 17.9999 9.5C17.9999 4.80545 14.1944 1 9.49988 1C4.80533 1 0.999878 4.80545 0.999878 9.5C0.999878 14.1946 4.80533 18 9.49988 18Z" stroke="#E7EAEF" stroke-width="1.5" stroke-linecap="round" stroke-linejoin="round"/>
<path id="Vector_2" d="M13.4333 6.72226L12.0056 13.4548C11.8979 13.93 11.6171 14.0482 11.2179 13.8244L9.04273 12.2215L7.99315 13.231C7.877 13.3471 7.77985 13.4443 7.556 13.4443L7.71227 11.2289L11.7438 7.58601C11.9191 7.42973 11.7058 7.34314 11.4714 7.49942L6.48741 10.6376L4.34177 9.96605C3.87506 9.82034 3.86661 9.49934 4.43892 9.27548L12.8314 6.04225C13.22 5.89653 13.56 6.12883 13.4333 6.72226Z" fill="#E7EAEF"/>
</g>
</svg>
