<svg width="27" height="26" viewBox="0 0 27 26" fill="none" xmlns="http://www.w3.org/2000/svg">
<rect x="0.693848" width="25.9592" height="25.9592" rx="2.16327" fill="#55ACEE"/>
<path d="M22.3265 8.8543C21.7696 9.07112 21.1714 9.21761 20.5425 9.28383C21.1914 8.94266 21.6769 8.40572 21.9084 7.77317C21.2987 8.09135 20.6315 8.31532 19.9356 8.43533C19.4677 7.99635 18.848 7.70539 18.1725 7.60762C17.4971 7.50984 16.8039 7.61073 16.2004 7.89462C15.597 8.1785 15.1171 8.6295 14.8352 9.17759C14.5534 9.72568 14.4853 10.3402 14.6417 10.9257C13.4064 10.8712 12.1979 10.5891 11.0947 10.0977C9.99149 9.60627 9.01822 8.91651 8.23804 8.07319C7.97128 8.47752 7.81789 8.9463 7.81789 9.44556C7.81759 9.895 7.94355 10.3376 8.18461 10.734C8.42566 11.1304 8.77434 11.4684 9.19972 11.718C8.70639 11.7042 8.22395 11.5871 7.79254 11.3764V11.4115C7.79249 12.0419 8.04066 12.6528 8.49492 13.1407C8.94919 13.6286 9.58158 13.9634 10.2848 14.0883C9.82714 14.1971 9.34734 14.2131 8.88161 14.1352C9.08001 14.6775 9.46648 15.1518 9.98692 15.4917C10.5074 15.8315 11.1357 16.0198 11.784 16.0302C10.6835 16.7893 9.32436 17.2011 7.92526 17.1992C7.67742 17.1993 7.4298 17.1866 7.18365 17.1612C8.60382 17.9635 10.257 18.3893 11.9454 18.3876C17.6608 18.3876 20.7853 14.2283 20.7853 10.621C20.7853 10.5038 20.7819 10.3855 20.7759 10.2683C21.3837 9.8821 21.9083 9.40389 22.3252 8.85606L22.3265 8.8543Z" fill="white"/>
</svg>
