<svg width="17" height="17" viewBox="0 0 17 17" fill="none" xmlns="http://www.w3.org/2000/svg">
<g id="Group 15">
<path id="Vector" d="M12.3231 10.1679C12.1163 10.0616 11.086 9.55695 10.8944 9.48864C10.7028 9.41655 10.5624 9.38239 10.4239 9.59489C10.2835 9.8055 9.88503 10.2741 9.75981 10.4164C9.63838 10.5568 9.51506 10.5739 9.30825 10.4696C8.0788 9.85483 7.27245 9.37291 6.46231 7.98217C6.24791 7.61219 6.6767 7.63876 7.07703 6.83998C7.14533 6.69958 7.11118 6.58005 7.05806 6.4738C7.00493 6.36755 6.58753 5.3392 6.41298 4.91989C6.24412 4.51197 6.06956 4.56889 5.94245 4.5613C5.82102 4.55371 5.68252 4.55371 5.54212 4.55371C5.40172 4.55371 5.17594 4.60684 4.98431 4.81364C4.79268 5.02425 4.25195 5.53083 4.25195 6.55918C4.25195 7.58753 5.00139 8.58362 5.10384 8.72402C5.21009 8.86443 6.57804 10.9742 8.67835 11.8831C10.0065 12.4561 10.5263 12.5054 11.1904 12.4067C11.5945 12.346 12.4274 11.902 12.6001 11.4106C12.7727 10.9211 12.7727 10.5018 12.7215 10.4145C12.6703 10.3216 12.5299 10.2684 12.3231 10.1679Z" fill="#E7EAEF"/>
<path id="Vector_2" d="M16.3396 5.20625C15.9108 4.18739 15.2961 3.27288 14.5125 2.48739C13.729 1.70379 12.8145 1.08717 11.7937 0.660268C10.7502 0.221987 9.64217 0 8.5 0H8.46206C7.31229 0.00569196 6.19858 0.233371 5.15127 0.681138C4.14001 1.11373 3.2331 1.72846 2.45711 2.51205C1.68111 3.29565 1.07208 4.20636 0.650881 5.22143C0.214502 6.27254 -0.00558425 7.39007 0.000107639 8.53984C0.00579953 9.85658 0.320751 11.1638 0.91081 12.3326V15.2165C0.91081 15.6984 1.30165 16.0893 1.78357 16.0893H4.66936C5.83809 16.6794 7.14533 16.9943 8.46206 17H8.5019C9.63838 17 10.7407 16.7799 11.7785 16.3492C12.7936 15.9261 13.7062 15.319 14.4879 14.543C15.2715 13.767 15.8881 12.86 16.3188 11.8488C16.7665 10.8015 16.9942 9.68772 16.9999 8.53795C17.0056 7.38248 16.7817 6.26116 16.3396 5.20625ZM13.4728 13.5165C12.1428 14.8333 10.3783 15.558 8.5 15.558H8.46775C7.32368 15.5523 6.1872 15.2677 5.18353 14.7327L5.02415 14.6473H2.35276V11.9759L2.26738 11.8165C1.73234 10.8128 1.44775 9.67634 1.44205 8.53226C1.43446 6.64063 2.15734 4.86473 3.48355 3.52712C4.80786 2.18951 6.57804 1.44955 8.46964 1.44196H8.5019C9.45055 1.44196 10.3707 1.626 11.2378 1.99029C12.084 2.34509 12.8429 2.85547 13.4956 3.50815C14.1464 4.15893 14.6586 4.91975 15.0134 5.76596C15.3815 6.64252 15.5655 7.57221 15.5617 8.53226C15.5504 10.422 14.8085 12.1922 13.4728 13.5165Z" fill="#E7EAEF"/>
</g>
</svg>
