<svg width="153" height="42" viewBox="0 0 153 42" fill="none" xmlns="http://www.w3.org/2000/svg">
<path d="M32.6366 42L30.7542 38.3377L30.3452 37.516H17.5047L21.1444 30.3452L21.9712 31.9687L22.788 33.6423H28.3402L27.0093 30.9381L21.1444 19.4359L11.5384 38.3515L9.63226 42H32.6366Z" fill="#D2A56D"/>
<path d="M42.2951 41.9937H35.5797L21.1469 13.5748L6.71419 41.9937H0L21.1469 0.35527L42.2951 41.9937Z" fill="#D2A56D"/>
<path d="M51.9005 0H50.3535V41.9922H51.9005V0Z" fill="white"/>
<path d="M71.3001 16.9754H64.2534L62.9447 20.2133H58.135L65.4911 3.54886H70.1321L77.5114 20.2133H72.6073L71.3001 16.9754ZM69.9202 13.4977L67.7776 8.16516L65.6349 13.4977H69.9202Z" fill="white"/>
<path d="M81.5615 7.28645H76.4424V3.54886H91.3696V7.28645H86.2752V20.2133H81.5615V7.28645Z" fill="white"/>
<path d="M93.1316 3.54886H97.8454V20.2133H93.1316V3.54886Z" fill="white"/>
<path d="M107.63 14.166L105.868 16.0472V20.2133H101.202V3.54886H105.868V10.4764L112.319 3.54886H117.51L110.703 10.9297L117.868 20.2118H112.392L107.63 14.166Z" fill="white"/>
<path d="M59.057 32.1424C59.057 28.4543 61.8788 25.8414 65.7216 25.8414C67.9539 25.8414 69.7546 26.6551 70.9319 28.1263L68.7506 30.0988C67.9895 29.1814 67.0489 28.6801 65.8948 28.6801C63.9038 28.6801 62.5192 30.0647 62.5192 32.1424C62.5192 34.22 63.9115 35.6046 65.8948 35.6046C67.0551 35.6046 67.9895 35.1018 68.7506 34.1844L70.9319 36.1584C69.7546 37.6296 67.9539 38.4434 65.7216 38.4434C61.8788 38.4434 59.057 35.8289 59.057 32.1424Z" fill="white"/>
<path d="M77.7512 34.9812H75.8824V38.2005H72.4526V26.0827H77.9925C81.2985 26.0827 83.3761 27.7968 83.3761 30.5691C83.3761 32.3528 82.5098 33.6631 81.0045 34.3948L83.6174 38.2036H79.9495L77.7512 34.9812ZM77.7867 28.7838H75.8824V32.3327H77.7867C79.2054 32.3327 79.9154 31.6752 79.9154 30.566C79.9154 29.4568 79.2054 28.7838 77.7867 28.7838Z" fill="white"/>
<path d="M94.9911 35.552V38.2005H85.2635V26.0827H94.7668V28.7312H88.6561V30.7748H94.0397V33.3367H88.6561V35.552H94.9911Z" fill="white"/>
<path d="M105.014 35.8459H99.8905L98.9376 38.2005H95.4413L100.791 26.0827H104.166L109.533 38.2005H105.975L105.014 35.8459ZM104.012 33.3197L102.454 29.4413L100.896 33.3197H104.012Z" fill="white"/>
<path d="M112.474 28.8008H108.752V26.0827H119.606V28.8008H115.902V38.2005H112.474V28.8008Z" fill="white"/>
<path d="M120.887 26.0827H124.313V38.2005H120.887V26.0827Z" fill="white"/>
<path d="M126.134 32.1424C126.134 28.5069 128.99 25.8414 132.868 25.8414C136.747 25.8414 139.593 28.5038 139.593 32.1424C139.593 35.781 136.737 38.4434 132.861 38.4434C128.984 38.4434 126.134 35.7748 126.134 32.1424ZM136.139 32.1424C136.139 30.0477 134.703 28.6801 132.868 28.6801C131.034 28.6801 129.596 30.0477 129.596 32.1424C129.596 34.237 131.034 35.6046 132.868 35.6046C134.703 35.6046 136.136 34.237 136.136 32.1424H136.139Z" fill="white"/>
<path d="M152.927 26.0827V38.2005H150.113L144.763 31.7433V38.2005H141.406V26.0827H144.226L149.576 32.54V26.0827H152.927Z" fill="white"/>
</svg>
