<svg width="27" height="27" viewBox="0 0 27 27" fill="none" xmlns="http://www.w3.org/2000/svg">
<g id="Group">
<g id="Group_2">
<g id="Group_3">
<g id="Group_4">
<g id="Group_5">
<path id="Vector" d="M22.268 4.86064L17.3811 9.74756C16.3803 8.74674 14.9978 8.12761 13.471 8.12761V1.2168C16.9063 1.2168 20.0169 2.60894 22.268 4.86064Z" fill="url(#paint0_linear_83_32)"/>
<path id="Vector_2" d="M9.56083 9.74752C8.56001 10.7483 7.94088 12.1309 7.94088 13.6577H1.03007C1.03007 10.2224 2.42221 7.11173 4.67392 4.8606L9.56083 9.74752Z" fill="url(#paint1_linear_83_32)"/>
<path id="Vector_3" d="M13.471 1.2168V8.12761C11.9442 8.12761 10.5616 8.74674 9.56082 9.74756L4.6739 4.86064C6.92503 2.60894 10.0357 1.2168 13.471 1.2168Z" fill="url(#paint2_linear_83_32)"/>
<path id="Vector_4" d="M25.9119 13.6577H19.0011C19.0011 12.1309 18.3819 10.7483 17.3811 9.74752L22.268 4.8606C24.5197 7.11173 25.9119 10.2224 25.9119 13.6577Z" fill="url(#paint3_linear_83_32)"/>
<path id="Vector_5" d="M25.9119 13.6577C25.9119 17.093 24.5197 20.2036 22.268 22.4548L17.3811 17.5679C18.3819 16.567 19.0011 15.1845 19.0011 13.6577H25.9119Z" fill="url(#paint4_linear_83_32)"/>
<path id="Vector_6" d="M9.56083 17.5679L4.67392 22.4548C2.42221 20.2036 1.03007 17.093 1.03007 13.6577H7.94088C7.94088 15.1845 8.56001 16.567 9.56083 17.5679Z" fill="url(#paint5_linear_83_32)"/>
<path id="Vector_7" d="M22.268 22.4548C20.0169 24.7065 16.9063 26.0986 13.471 26.0986V19.1878C14.9978 19.1878 16.3803 18.5687 17.3811 17.5679L22.268 22.4548Z" fill="url(#paint6_linear_83_32)"/>
<path id="Vector_8" d="M13.471 19.1878V26.0986C10.0357 26.0986 6.92503 24.7065 4.6739 22.4548L9.56082 17.5679C10.5616 18.5687 11.9442 19.1878 13.471 19.1878Z" fill="url(#paint7_linear_83_32)"/>
</g>
<g id="Group_6">
<path id="Vector_9" d="M20.1444 6.98432L17.3811 9.74755C16.3803 8.74673 14.9978 8.1276 13.471 8.1276V4.22046C16.0773 4.22046 18.436 5.27661 20.1444 6.98432Z" fill="url(#paint8_linear_83_32)"/>
<path id="Vector_10" d="M9.56083 9.74761C8.56001 10.7484 7.94087 12.131 7.94087 13.6577H4.03374C4.03374 11.0514 5.08984 8.6927 6.7976 6.98438L9.56083 9.74761Z" fill="url(#paint9_linear_83_32)"/>
<path id="Vector_11" d="M13.471 4.22046V8.1276C11.9442 8.1276 10.5616 8.74673 9.56082 9.74755L6.79758 6.98432C8.5059 5.27661 10.8646 4.22046 13.471 4.22046Z" fill="url(#paint10_linear_83_32)"/>
<path id="Vector_12" d="M22.9082 13.6577H19.0011C19.0011 12.131 18.3819 10.7484 17.3811 9.74761L20.1444 6.98438C21.8521 8.6927 22.9082 11.0514 22.9082 13.6577Z" fill="url(#paint11_linear_83_32)"/>
<path id="Vector_13" d="M22.9082 13.6577C22.9082 16.2641 21.8521 18.6228 20.1444 20.3311L17.3811 17.5679C18.3819 16.567 19.0011 15.1845 19.0011 13.6577H22.9082Z" fill="url(#paint12_linear_83_32)"/>
<path id="Vector_14" d="M9.56083 17.5679L6.7976 20.3311C5.08989 18.6228 4.03374 16.2641 4.03374 13.6577H7.94087C7.94087 15.1845 8.56001 16.567 9.56083 17.5679Z" fill="url(#paint13_linear_83_32)"/>
<path id="Vector_15" d="M20.1444 20.3311C18.436 22.0388 16.0773 23.095 13.471 23.095V19.1878C14.9978 19.1878 16.3803 18.5687 17.3811 17.5679L20.1444 20.3311Z" fill="url(#paint14_linear_83_32)"/>
<path id="Vector_16" d="M13.471 19.1878V23.095C10.8646 23.095 8.5059 22.0388 6.79758 20.3311L9.56082 17.5679C10.5616 18.5687 11.9442 19.1878 13.471 19.1878Z" fill="url(#paint15_linear_83_32)"/>
</g>
</g>
<path id="Vector_17" d="M23.7046 6.58252L18.6283 11.6588C18.8689 12.2789 19.0011 12.9528 19.0011 13.6577C19.0011 15.1844 18.3819 16.567 17.3811 17.5678C16.3803 18.5686 14.9978 19.1877 13.471 19.1877C12.7661 19.1877 12.0921 19.0555 11.4722 18.815L6.39584 23.8913C8.40463 25.2828 10.8425 26.0986 13.471 26.0986C16.9063 26.0986 20.0169 24.7064 22.2681 22.4547C24.5198 20.2036 25.9119 17.0929 25.9119 13.6577C25.9119 11.0292 25.0961 8.59131 23.7046 6.58252Z" fill="url(#paint16_linear_83_32)"/>
</g>
<g id="Group_7">
<g id="Group_8">
<g id="Group_9">
<path id="Vector_18" d="M2.97013 18.8046L0.313153 26.2371C0.184611 26.5967 0.531871 26.944 0.891488 26.8155L8.32401 24.1585C9.8069 22.6756 4.45297 17.3218 2.97013 18.8046Z" fill="url(#paint17_linear_83_32)"/>
<path id="Vector_19" d="M17.2965 15.187L8.3239 24.1587C8.17731 23.9047 7.95456 23.6799 7.6692 23.5206C7.27933 23.3047 6.66961 23.4229 6.24748 23.5509C6.1556 23.5783 6.07157 23.5304 6.0374 23.4571C6.01589 23.4132 6.01201 23.3594 6.03543 23.3067C6.03641 23.3067 6.03641 23.3057 6.03641 23.3057C6.05989 23.252 6.08042 23.1972 6.098 23.1425C6.1058 23.1161 6.11361 23.0898 6.12147 23.0633C6.12245 23.0614 6.12245 23.0604 6.12245 23.0585C6.14494 22.9735 6.16056 22.8885 6.16935 22.8015C6.1723 22.7732 6.17426 22.7438 6.17618 22.7155C6.17861 22.6683 6.17907 22.6211 6.17752 22.5739C6.16682 22.2435 6.05891 21.9155 5.85368 21.6368C5.80384 21.5684 5.74815 21.5039 5.68662 21.4423C5.62504 21.3807 5.56056 21.325 5.49215 21.2752C5.17359 21.0407 4.79055 20.9332 4.4134 20.9527C4.38507 20.9547 4.35575 20.9567 4.32742 20.9596C4.24045 20.9684 4.15446 20.984 4.07044 21.0065C4.06847 21.0065 4.06749 21.0065 4.06552 21.0074C4.03915 21.0152 4.01273 21.0231 3.98636 21.0309C3.95803 21.0397 3.93067 21.0495 3.90332 21.0602C3.87695 21.07 3.85053 21.0808 3.82416 21.0925C3.82318 21.0925 3.82318 21.0925 3.82219 21.0935C3.7694 21.117 3.71568 21.113 3.67173 21.0915C3.59846 21.0573 3.55058 20.9733 3.57793 20.8814C3.70596 20.4593 3.82416 19.8506 3.60823 19.4607C3.44893 19.1744 3.22519 18.9516 2.97018 18.8051L11.9418 9.83246C12.3463 9.42889 13.001 9.42889 13.4046 9.83246L14.1677 10.5956L16.5334 12.9612L17.2965 13.7243C17.7 14.1278 17.7 14.7825 17.2965 15.187Z" fill="url(#paint18_linear_83_32)"/>
<path id="Vector_20" d="M16.5334 12.9611L6.03739 23.4571C6.01588 23.4131 6.012 23.3594 6.03543 23.3066C6.03641 23.3066 6.03641 23.3057 6.03641 23.3057C6.05988 23.2519 6.16149 22.8875 6.16929 22.8015C6.17322 22.7721 6.17514 22.7438 6.17612 22.7155C6.19566 22.3383 6.08817 21.9553 5.85368 21.6367C5.80383 21.5683 5.74815 21.5038 5.68661 21.4423C5.62503 21.3807 5.56055 21.325 5.49215 21.2751C5.17358 21.0407 4.79054 20.9332 4.4134 20.9527C4.38506 20.9537 4.35673 20.9556 4.32741 20.9595C4.24142 20.9673 4.15544 20.983 4.07043 21.0064C4.06847 21.0064 4.06748 21.0064 4.06552 21.0074C4.03915 21.0142 3.85057 21.0807 3.82415 21.0924C3.82317 21.0924 3.82317 21.0924 3.82219 21.0934C3.7694 21.1169 3.71567 21.1129 3.67172 21.0914L14.1677 10.5955L16.5334 12.9611Z" fill="url(#paint19_linear_83_32)"/>
<path id="Vector_21" d="M1.81346 25.3154C1.53218 25.0341 1.2178 24.8084 0.885277 24.637L0.313199 26.2373C0.184657 26.5969 0.531916 26.9443 0.891534 26.8157L2.4919 26.2436C2.32044 25.911 2.09474 25.5966 1.81346 25.3154Z" fill="url(#paint20_linear_83_32)"/>
</g>
</g>
<g id="Group_10">
<g id="Group_11">
<g id="Group_12">
<path id="Vector_22" d="M25.8192 1.30961L14.9849 12.1439L13.4001 10.559C13.0546 10.2136 13.0546 9.65346 13.4001 9.30801L14.3479 8.36013C14.7571 7.95098 14.9869 7.39607 14.9869 6.81747V5.63624C14.9869 4.70692 15.5756 3.87962 16.4536 3.57507L25.3133 0.50196C25.8037 0.331794 26.1863 0.942498 25.8192 1.30961Z" fill="url(#paint21_linear_83_32)"/>
<path id="Vector_23" d="M25.8192 1.30972L14.9849 12.144L16.5698 13.7289C16.9152 14.0743 17.4754 14.0743 17.8208 13.7289L18.7687 12.781C19.1779 12.3718 19.7328 12.142 20.3114 12.142H21.4925C22.4219 12.142 23.2492 11.5533 23.5537 10.6753L26.6268 1.81562C26.797 1.32518 26.1863 0.942606 25.8192 1.30972Z" fill="url(#paint22_linear_83_32)"/>
</g>
<path id="Vector_24" d="M20.7147 6.92293L26.1567 1.48094C26.2922 1.34547 26.3083 1.12495 26.1818 0.980995C26.0432 0.823239 25.8028 0.817447 25.6567 0.963518L20.2187 6.40153C19.8627 6.75758 19.3693 6.95251 18.8677 6.9082C18.4037 6.86724 17.9243 7.04289 17.5935 7.43534C17.1248 7.99144 17.1323 8.82092 17.6099 9.36942C18.1833 10.0279 19.1833 10.0538 19.7902 9.44687C20.108 9.12903 20.2522 8.70344 20.2229 8.28777C20.1871 7.78131 20.3557 7.28193 20.7147 6.92293Z" fill="url(#paint23_linear_83_32)"/>
<path id="Vector_25" d="M14.895 7.44336C14.7922 7.78643 14.6058 8.10225 14.348 8.36011L13.4001 9.30799C13.0546 9.65344 13.0546 10.2136 13.4001 10.559L14.9849 12.1439L16.5698 13.7287C16.9152 14.0742 17.4754 14.0742 17.8208 13.7287L18.7687 12.7808C19.0266 12.523 19.3424 12.3365 19.6855 12.2338L14.895 7.44336Z" fill="url(#paint24_linear_83_32)"/>
</g>
<path id="Vector_26" d="M15.9697 16.5136L10.615 11.1589L12.749 9.02497C12.9962 8.77781 13.3968 8.77781 13.6439 9.02497L18.1037 13.4847C18.3508 13.7318 18.3508 14.1325 18.1037 14.3796L15.9697 16.5136Z" fill="url(#paint25_linear_83_32)"/>
</g>
</g>
</g>
</g>
<defs>
<linearGradient id="paint0_linear_83_32" x1="12.1243" y1="0.748958" x2="20.3493" y2="8.97388" gradientUnits="userSpaceOnUse">
<stop stop-color="#FFF5D9"/>
<stop offset="1" stop-color="#FFCE47"/>
</linearGradient>
<linearGradient id="paint1_linear_83_32" x1="2.61564" y1="9.02275" x2="6.29718" y2="12.7043" gradientUnits="userSpaceOnUse">
<stop stop-color="#6FA953"/>
<stop offset="1" stop-color="#43765A"/>
</linearGradient>
<linearGradient id="paint2_linear_83_32" x1="8.61971" y1="2.58598" x2="13.4579" y2="7.42419" gradientUnits="userSpaceOnUse">
<stop stop-color="#E4E08E"/>
<stop offset="1" stop-color="#6FA953"/>
</linearGradient>
<linearGradient id="paint3_linear_83_32" x1="17.4437" y1="6.06825" x2="25.2962" y2="13.9208" gradientUnits="userSpaceOnUse">
<stop stop-color="#FFCE47"/>
<stop offset="1" stop-color="#FF9356"/>
</linearGradient>
<linearGradient id="paint4_linear_83_32" x1="19.1881" y1="13.1544" x2="23.7404" y2="17.7067" gradientUnits="userSpaceOnUse">
<stop stop-color="#FF9356"/>
<stop offset="1" stop-color="#FF755C"/>
</linearGradient>
<linearGradient id="paint5_linear_83_32" x1="1.9597" y1="13.7085" x2="7.31632" y2="19.0652" gradientUnits="userSpaceOnUse">
<stop stop-color="#7ACBFF"/>
<stop offset="1" stop-color="#45A2E0"/>
</linearGradient>
<linearGradient id="paint6_linear_83_32" x1="13.4622" y1="19.8695" x2="17.956" y2="24.3632" gradientUnits="userSpaceOnUse">
<stop stop-color="#FF755C"/>
<stop offset="1" stop-color="#FF4181"/>
</linearGradient>
<linearGradient id="paint7_linear_83_32" x1="5.79143" y1="17.5403" x2="16.6578" y2="28.4067" gradientUnits="userSpaceOnUse">
<stop stop-color="#FF4181"/>
<stop offset="1" stop-color="#843561"/>
</linearGradient>
<linearGradient id="paint8_linear_83_32" x1="18.4386" y1="9.18685" x2="13.3765" y2="4.12475" gradientUnits="userSpaceOnUse">
<stop stop-color="#FFF5D9"/>
<stop offset="1" stop-color="#FFCE47"/>
</linearGradient>
<linearGradient id="paint9_linear_83_32" x1="8.43679" y1="13.3422" x2="2.16274" y2="7.06814" gradientUnits="userSpaceOnUse">
<stop stop-color="#6FA953"/>
<stop offset="1" stop-color="#43765A"/>
</linearGradient>
<linearGradient id="paint10_linear_83_32" x1="12.8248" y1="8.2929" x2="7.24122" y2="2.70934" gradientUnits="userSpaceOnUse">
<stop stop-color="#E4E08E"/>
<stop offset="1" stop-color="#6FA953"/>
</linearGradient>
<linearGradient id="paint11_linear_83_32" x1="22.8487" y1="13.597" x2="16.9543" y2="7.70263" gradientUnits="userSpaceOnUse">
<stop stop-color="#FFCE47"/>
<stop offset="1" stop-color="#FF9356"/>
</linearGradient>
<linearGradient id="paint12_linear_83_32" x1="22.4423" y1="17.9105" x2="18.5044" y2="13.9725" gradientUnits="userSpaceOnUse">
<stop stop-color="#FF9356"/>
<stop offset="1" stop-color="#FF755C"/>
</linearGradient>
<linearGradient id="paint13_linear_83_32" x1="9.984" y1="19.6092" x2="2.71337" y2="12.3385" gradientUnits="userSpaceOnUse">
<stop stop-color="#7ACBFF"/>
<stop offset="1" stop-color="#45A2E0"/>
</linearGradient>
<linearGradient id="paint14_linear_83_32" x1="17.9341" y1="22.8395" x2="12.6347" y2="17.5401" gradientUnits="userSpaceOnUse">
<stop stop-color="#FF755C"/>
<stop offset="1" stop-color="#FF4181"/>
</linearGradient>
<linearGradient id="paint15_linear_83_32" x1="13.5905" y1="23.2158" x2="7.12312" y2="16.7483" gradientUnits="userSpaceOnUse">
<stop stop-color="#FF4181"/>
<stop offset="1" stop-color="#843561"/>
</linearGradient>
<linearGradient id="paint16_linear_83_32" x1="18.8124" y1="18.9991" x2="15.0538" y2="15.2405" gradientUnits="userSpaceOnUse">
<stop stop-color="#843561" stop-opacity="0"/>
<stop offset="1" stop-color="#3A2F4D"/>
</linearGradient>
<linearGradient id="paint17_linear_83_32" x1="0.918923" y1="20.8543" x2="6.27206" y2="26.2074" gradientUnits="userSpaceOnUse">
<stop stop-color="#FFE0EA"/>
<stop offset="1" stop-color="#FFC0D5"/>
</linearGradient>
<linearGradient id="paint18_linear_83_32" x1="2.97018" y1="16.8442" x2="17.5991" y2="16.8442" gradientUnits="userSpaceOnUse">
<stop stop-color="#FFCE47"/>
<stop offset="1" stop-color="#FF9356"/>
</linearGradient>
<linearGradient id="paint19_linear_83_32" x1="12.324" y1="19.2478" x2="6.91919" y2="13.843" gradientUnits="userSpaceOnUse">
<stop stop-color="#FFCE47"/>
<stop offset="1" stop-color="#FF9356"/>
</linearGradient>
<linearGradient id="paint20_linear_83_32" x1="0.961359" y1="25.842" x2="2.32725" y2="27.2079" gradientUnits="userSpaceOnUse">
<stop stop-color="#2F73A0"/>
<stop offset="1" stop-color="#174461"/>
</linearGradient>
<linearGradient id="paint21_linear_83_32" x1="19.311" y1="5.10084" x2="20.0159" y2="6.25891" gradientUnits="userSpaceOnUse">
<stop stop-color="#EDF5FF"/>
<stop offset="1" stop-color="#C7E9FF"/>
</linearGradient>
<linearGradient id="paint22_linear_83_32" x1="21.1013" y1="7.32928" x2="22.0579" y2="9.04118" gradientUnits="userSpaceOnUse">
<stop stop-color="#EDF5FF"/>
<stop offset="1" stop-color="#C7E9FF"/>
</linearGradient>
<linearGradient id="paint23_linear_83_32" x1="22.9088" y1="6.18425" x2="21.266" y2="4.54148" gradientUnits="userSpaceOnUse">
<stop stop-color="#2F73A0"/>
<stop offset="1" stop-color="#174461"/>
</linearGradient>
<linearGradient id="paint24_linear_83_32" x1="16.6846" y1="10.4433" x2="15.7871" y2="11.3408" gradientUnits="userSpaceOnUse">
<stop stop-color="#7ACBFF" stop-opacity="0"/>
<stop offset="1" stop-color="#2F73A0"/>
</linearGradient>
<linearGradient id="paint25_linear_83_32" x1="15.0025" y1="11.7533" x2="13.6054" y2="13.9972" gradientUnits="userSpaceOnUse">
<stop stop-color="#2F73A0"/>
<stop offset="1" stop-color="#174461"/>
</linearGradient>
</defs>
</svg>
